<svg xmlns="http://www.w3.org/2000/svg" height="22" width="22" viewBox="0 0 24 24" fill="#a67c52">
  <path d="M2.29 2.27L1 3.59l3.16 3.17C3.11 8.59 2 10.2 2 12c.73 3.18 5 7.29 10 7.29 1.53 0 2.98-.34 4.27-.99l3.44 3.44 1.29-1.32L2.29 2.27zm7.73 7.73a4 4 0 005.32 5.32l1.45 1.45a7.98 7.98 0 01-7.99 0c-.63-.45-1.22-.98-1.74-1.57l1.45-1.45a2.98 2.98 0 001.51-.27zm6.47-6.46L19 4.59c2.77 2.77 5 6.06 5 7.41s-2.23 4.64-5 7.41l-1.59-1.59C17.19 15.03 19 12 19 12c-.34-.77-2.41-4.42-6.71-5.18a7.98 7.98 0 00-3.8 0z"/>
</svg>
